<svg width="24" height="25" viewBox="0 0 24 25" fill="none" xmlns="http://www.w3.org/2000/svg">
<mask id="mask0_60_1058" style="mask-type:alpha" maskUnits="userSpaceOnUse" x="0" y="0" width="24" height="25">
<rect y="0.301483" width="24" height="24" fill="#D9D9D9"/>
</mask>
<g mask="url(#mask0_60_1058)">
<path d="M15.3943 19.7592L14.7943 19.965C14.6289 20.0188 14.4677 20.0169 14.3105 19.9592C14.1535 19.9014 14.0295 19.8033 13.9385 19.665L13.8057 19.4207C13.7147 19.2656 13.6795 19.1018 13.7 18.9295C13.7205 18.757 13.8032 18.6117 13.948 18.4937L14.402 18.1052C14.3302 17.8246 14.2943 17.5438 14.2943 17.263C14.2943 16.9821 14.3302 16.7014 14.402 16.4207L13.948 16.0322C13.8097 15.9207 13.727 15.7797 13.7 15.6092C13.6732 15.4387 13.7052 15.2759 13.7962 15.1207L13.9635 14.8612C14.0545 14.7227 14.1743 14.6246 14.323 14.567C14.4718 14.5093 14.6289 14.5074 14.7943 14.5612L15.3943 14.767C15.5904 14.5758 15.8033 14.4217 16.0328 14.3045C16.2623 14.1872 16.5058 14.09 16.7635 14.013L16.8655 13.4227C16.9027 13.2471 16.9879 13.1028 17.1212 12.99C17.2546 12.8772 17.409 12.8207 17.5845 12.8207H17.85C18.0257 12.8207 18.1802 12.8797 18.3135 12.9977C18.4468 13.1156 18.5321 13.2623 18.5693 13.438L18.671 14.013C18.9288 14.09 19.1725 14.1872 19.402 14.3045C19.6315 14.4217 19.8443 14.5758 20.0403 14.767L20.6402 14.5612C20.8057 14.5074 20.967 14.5093 21.124 14.567C21.281 14.6246 21.405 14.7227 21.496 14.8612L21.6288 15.1052C21.7198 15.2604 21.755 15.4242 21.7345 15.5967C21.714 15.7691 21.6313 15.9142 21.4865 16.0322L21.0328 16.4207C21.1044 16.7014 21.1402 16.9821 21.1402 17.263C21.1402 17.5438 21.1044 17.8246 21.0328 18.1052L21.4865 18.4937C21.625 18.6052 21.7077 18.7463 21.7345 18.917C21.7615 19.0875 21.7295 19.2502 21.6385 19.4052L21.471 19.665C21.38 19.8033 21.2602 19.9014 21.1115 19.9592C20.9628 20.0169 20.8057 20.0188 20.6402 19.965L20.0403 19.7592C19.8378 19.9502 19.6233 20.1044 19.397 20.2217C19.1708 20.3391 18.9288 20.4362 18.671 20.513L18.5693 21.1035C18.5321 21.279 18.4468 21.4232 18.3135 21.536C18.1802 21.6488 18.0257 21.7052 17.85 21.7052H17.5845C17.409 21.7052 17.2546 21.6463 17.1212 21.5285C16.9879 21.4105 16.9027 21.2637 16.8655 21.088L16.7635 20.513C16.5058 20.4362 16.2638 20.3391 16.0375 20.2217C15.8112 20.1044 15.5968 19.9502 15.3943 19.7592ZM17.7172 19.34C18.2929 19.34 18.783 19.1377 19.1875 18.7332C19.592 18.3287 19.7943 17.8386 19.7943 17.263C19.7943 16.6873 19.592 16.1972 19.1875 15.7927C18.783 15.3882 18.2929 15.186 17.7172 15.186C17.1416 15.186 16.6515 15.3882 16.247 15.7927C15.8425 16.1972 15.6403 16.6873 15.6403 17.263C15.6403 17.8386 15.8425 18.3287 16.247 18.7332C16.6515 19.1377 17.1416 19.34 17.7172 19.34ZM4 18.3015V10.4552V10.8572V6.30148V18.3015ZM4 8.70548H20V6.60923C20 6.53223 19.9679 6.46173 19.9038 6.39773C19.8398 6.33357 19.7693 6.30148 19.6923 6.30148H4.30775C4.23075 6.30148 4.16025 6.33357 4.09625 6.39773C4.03208 6.46173 4 6.53223 4 6.60923V8.70548ZM4.30775 19.8015C3.80258 19.8015 3.375 19.6265 3.025 19.2765C2.675 18.9265 2.5 18.4989 2.5 17.9937V6.60923C2.5 6.10407 2.675 5.67648 3.025 5.32648C3.375 4.97648 3.80258 4.80148 4.30775 4.80148H19.6923C20.1974 4.80148 20.625 4.97648 20.975 5.32648C21.325 5.67648 21.5 6.10407 21.5 6.60923V10.3862C21.5 10.6606 21.3853 10.8622 21.1558 10.991C20.9263 11.1198 20.6827 11.1272 20.425 11.013C20.0173 10.8323 19.5853 10.6942 19.1288 10.5987C18.6724 10.5031 18.2019 10.4552 17.7172 10.4552C16.9532 10.4552 16.2273 10.5831 15.5395 10.839C14.8517 11.0948 14.2359 11.4476 13.6923 11.8975H4V17.9937C4 18.0707 4.03208 18.1412 4.09625 18.2052C4.16025 18.2694 4.23075 18.3015 4.30775 18.3015H10.6713C10.8841 18.3015 11.0623 18.3733 11.2058 18.517C11.3494 18.6605 11.4213 18.8386 11.4213 19.0515C11.4213 19.2643 11.3494 19.4425 11.2058 19.586C11.0623 19.7296 10.8841 19.8015 10.6713 19.8015H4.30775Z" fill="#1C1B1F" fill-opacity="0.6"/>
</g>
</svg>
