<svg width="20" height="20" viewBox="0 0 20 20" fill="none" xmlns="http://www.w3.org/2000/svg">
<g id="brightness_alert">
<mask id="mask0_226_4412" style="mask-type:alpha" maskUnits="userSpaceOnUse" x="0" y="0" width="20" height="20">
<rect id="Bounding box" x="0.878906" y="0.878906" width="18.24" height="18.24" fill="#D9D9D9"/>
</mask>
<g mask="url(#mask0_226_4412)">
<path id="brightness_alert_2" d="M9.99719 13.5945C10.1711 13.5945 10.3169 13.5357 10.4346 13.418C10.5522 13.3003 10.6111 13.1545 10.6111 12.9806C10.6111 12.8067 10.5522 12.6609 10.4346 12.5432C10.3169 12.4257 10.1711 12.3669 9.99719 12.3669C9.82327 12.3669 9.67748 12.4257 9.55981 12.5432C9.44213 12.6609 9.3833 12.8067 9.3833 12.9806C9.3833 13.1545 9.44213 13.3003 9.55981 13.418C9.67748 13.5357 9.82327 13.5945 9.99719 13.5945ZM9.99738 10.8177C10.159 10.8177 10.2943 10.763 10.4034 10.6537C10.5126 10.5445 10.5672 10.4092 10.5672 10.2477V6.82766C10.5672 6.66616 10.5125 6.53075 10.4032 6.42144C10.2939 6.31225 10.1585 6.25766 9.997 6.25766C9.83537 6.25766 9.70003 6.31225 9.59097 6.42144C9.48178 6.53075 9.42719 6.66616 9.42719 6.82766V10.2477C9.42719 10.4092 9.48184 10.5445 9.59116 10.6537C9.70047 10.763 9.83588 10.8177 9.99738 10.8177ZM7.60927 15.6991H5.67108C5.29323 15.6991 4.96979 15.5646 4.70075 15.2956C4.43171 15.0265 4.29719 14.7031 4.29719 14.3253V12.3871L2.8853 10.9607C2.75572 10.8234 2.6578 10.6719 2.59156 10.5063C2.52531 10.3404 2.49219 10.1719 2.49219 10.0005C2.49219 9.82909 2.52531 9.66005 2.59156 9.49336C2.6578 9.32679 2.75572 9.17486 2.8853 9.03755L4.29719 7.61122V5.67303C4.29719 5.29518 4.43171 4.97174 4.70075 4.7027C4.96979 4.43366 5.29323 4.29914 5.67108 4.29914H7.60927L9.0356 2.88725C9.1729 2.75767 9.3244 2.65976 9.49008 2.59351C9.65588 2.52726 9.82448 2.49414 9.99586 2.49414C10.1672 2.49414 10.3363 2.52726 10.503 2.59351C10.6695 2.65976 10.8215 2.75767 10.9588 2.88725L12.3851 4.29914H14.3233C14.7011 4.29914 15.0246 4.43366 15.2936 4.7027C15.5627 4.97174 15.6972 5.29518 15.6972 5.67303V7.61122L17.1091 9.03755C17.2387 9.17486 17.3366 9.32635 17.4028 9.49203C17.4691 9.65784 17.5022 9.82643 17.5022 9.99781C17.5022 10.1692 17.4691 10.3382 17.4028 10.5049C17.3366 10.6715 17.2387 10.8234 17.1091 10.9607L15.6972 12.3871V14.3253C15.6972 14.7031 15.5627 15.0265 15.2936 15.2956C15.0246 15.5646 14.7011 15.6991 14.3233 15.6991H12.3851L10.9588 17.111C10.8215 17.2406 10.67 17.3385 10.5043 17.4048C10.3385 17.471 10.1699 17.5041 9.99852 17.5041C9.82714 17.5041 9.6581 17.471 9.49141 17.4048C9.32484 17.3385 9.1729 17.2406 9.0356 17.111L7.60927 15.6991Z" fill="#001731"/>
</g>
</g>
</svg>
