<svg width="60" height="60" viewBox="0 0 60 60" fill="none" xmlns="http://www.w3.org/2000/svg">
<rect width="60" height="60" rx="9" fill="#40E0D0"/>
<path d="M18.3171 43.5864C17.5593 43.5864 16.918 43.3239 16.393 42.799C15.868 42.2739 15.6055 41.6326 15.6055 40.8748V20.7981C15.6055 20.0403 15.868 19.3989 16.393 18.8739C16.918 18.3489 17.5593 18.0864 18.3171 18.0864H20.3938V16.0671C20.3938 15.7403 20.5047 15.4663 20.7265 15.2451C20.948 15.0241 21.2225 14.9136 21.55 14.9136C21.8775 14.9136 22.1512 15.0241 22.3712 15.2451C22.5915 15.4663 22.7016 15.7403 22.7016 16.0671V18.0864H34.0671V16.0386C34.0671 15.7198 34.175 15.4526 34.3907 15.2368C34.6062 15.0213 34.8735 14.9136 35.1925 14.9136C35.5115 14.9136 35.7786 15.0213 35.9938 15.2368C36.2093 15.4526 36.3171 15.7198 36.3171 16.0386V18.0864H38.3938C39.1516 18.0864 39.793 18.3489 40.318 18.8739C40.843 19.3989 41.1055 20.0403 41.1055 20.7981V27.8683C41.1055 28.1871 40.9976 28.4542 40.7818 28.6697C40.5661 28.8854 40.2988 28.9933 39.9801 28.9933C39.6611 28.9933 39.394 28.8854 39.1787 28.6697C38.9632 28.4542 38.8555 28.1871 38.8555 27.8683V26.7981H17.8555V40.8748C17.8555 40.9903 17.9036 41.0961 17.9998 41.1921C18.0958 41.2883 18.2016 41.3364 18.3171 41.3364H27.493C27.8117 41.3364 28.079 41.4443 28.2947 41.6601C28.5102 41.8758 28.618 42.1431 28.618 42.4618C28.618 42.7808 28.5102 43.0479 28.2947 43.2632C28.079 43.4787 27.8117 43.5864 27.493 43.5864H18.3171ZM37.6438 45.0864C35.7708 45.0864 34.1776 44.4297 32.8641 43.1162C31.5506 41.8027 30.8938 40.2094 30.8938 38.3364C30.8938 36.4634 31.5506 34.8702 32.8641 33.5567C34.1776 32.2432 35.7708 31.5864 37.6438 31.5864C39.5171 31.5864 41.1103 32.2432 42.4236 33.5567C43.7371 34.8702 44.3938 36.4634 44.3938 38.3364C44.3938 40.2094 43.7371 41.8027 42.4236 43.1162C41.1103 44.4297 39.5171 45.0864 37.6438 45.0864ZM38.3076 38.0623V34.5864C38.3076 34.4094 38.2412 34.2547 38.1085 34.1222C37.9757 33.9894 37.8208 33.9231 37.6438 33.9231C37.4671 33.9231 37.3123 33.9894 37.1796 34.1222C37.0468 34.2547 36.9805 34.4094 36.9805 34.5864V38.0421C36.9805 38.2188 37.0132 38.3899 37.0787 38.5554C37.144 38.7209 37.2468 38.874 37.3873 39.0145L39.6748 41.302C39.8056 41.4327 39.959 41.5005 40.135 41.5052C40.3107 41.51 40.4688 41.4422 40.6093 41.302C40.7498 41.1615 40.8201 41.0057 40.8201 40.8347C40.8201 40.6635 40.7498 40.5076 40.6093 40.3671L38.3076 38.0623Z" fill="#002B5B"/>
</svg>
