<svg width="22" height="25" viewBox="0 0 22 25" fill="none" xmlns="http://www.w3.org/2000/svg">
<path d="M2.63469 24.8745C2.00323 24.8745 1.46875 24.6558 1.03125 24.2183C0.59375 23.7808 0.375 23.2463 0.375 22.6148V5.88422C0.375 5.25276 0.59375 4.71828 1.03125 4.28078C1.46875 3.84328 2.00323 3.62453 2.63469 3.62453H4.36531V1.94172C4.36531 1.66776 4.45708 1.43901 4.64062 1.25547C4.82417 1.07214 5.05292 0.980469 5.32687 0.980469C5.60104 0.980469 5.82979 1.07214 6.01313 1.25547C6.19667 1.43901 6.28844 1.66776 6.28844 1.94172V3.62453H15.7597V1.91797C15.7597 1.65193 15.8494 1.42911 16.0287 1.24953C16.2083 1.07016 16.4311 0.980469 16.6972 0.980469C16.9632 0.980469 17.1859 1.07016 17.3653 1.24953C17.5449 1.42911 17.6347 1.65193 17.6347 1.91797V3.62453H19.3653C19.9968 3.62453 20.5312 3.84328 20.9688 4.28078C21.4062 4.71828 21.625 5.25276 21.625 5.88422V22.6148C21.625 23.2463 21.4062 23.7808 20.9688 24.2183C20.5312 24.6558 19.9968 24.8745 19.3653 24.8745H2.63469ZM2.63469 22.9995H19.3653C19.4616 22.9995 19.5497 22.9594 19.6297 22.8792C19.7099 22.7992 19.75 22.7111 19.75 22.6148V10.8842H2.25V22.6148C2.25 22.7111 2.2901 22.7992 2.37031 22.8792C2.45031 22.9594 2.53844 22.9995 2.63469 22.9995ZM2.25 9.00922H19.75V5.88422C19.75 5.78797 19.7099 5.69984 19.6297 5.61984C19.5497 5.53963 19.4616 5.49953 19.3653 5.49953H2.63469C2.53844 5.49953 2.45031 5.53963 2.37031 5.61984C2.2901 5.69984 2.25 5.78797 2.25 5.88422V9.00922ZM11 15.5958C10.694 15.5958 10.4331 15.488 10.2175 15.2723C10.0021 15.0569 9.89437 14.7961 9.89437 14.4898C9.89437 14.1838 10.0021 13.923 10.2175 13.7073C10.4331 13.4919 10.694 13.3842 11 13.3842C11.306 13.3842 11.5669 13.4919 11.7825 13.7073C11.9979 13.923 12.1056 14.1838 12.1056 14.4898C12.1056 14.7961 11.9979 15.0569 11.7825 15.2723C11.5669 15.488 11.306 15.5958 11 15.5958ZM6 15.5958C5.69396 15.5958 5.43313 15.488 5.2175 15.2723C5.00208 15.0569 4.89437 14.7961 4.89437 14.4898C4.89437 14.1838 5.00208 13.923 5.2175 13.7073C5.43313 13.4919 5.69396 13.3842 6 13.3842C6.30604 13.3842 6.56688 13.4919 6.7825 13.7073C6.99792 13.923 7.10563 14.1838 7.10563 14.4898C7.10563 14.7961 6.99792 15.0569 6.7825 15.2723C6.56688 15.488 6.30604 15.5958 6 15.5958ZM16 15.5958C15.694 15.5958 15.4331 15.488 15.2175 15.2723C15.0021 15.0569 14.8944 14.7961 14.8944 14.4898C14.8944 14.1838 15.0021 13.923 15.2175 13.7073C15.4331 13.4919 15.694 13.3842 16 13.3842C16.306 13.3842 16.5669 13.4919 16.7825 13.7073C16.9979 13.923 17.1056 14.1838 17.1056 14.4898C17.1056 14.7961 16.9979 15.0569 16.7825 15.2723C16.5669 15.488 16.306 15.5958 16 15.5958ZM11 20.4995C10.694 20.4995 10.4331 20.3917 10.2175 20.1761C10.0021 19.9607 9.89437 19.6999 9.89437 19.3939C9.89437 19.0877 10.0021 18.8268 10.2175 18.6114C10.4331 18.3958 10.694 18.288 11 18.288C11.306 18.288 11.5669 18.3958 11.7825 18.6114C11.9979 18.8268 12.1056 19.0877 12.1056 19.3939C12.1056 19.6999 11.9979 19.9607 11.7825 20.1761C11.5669 20.3917 11.306 20.4995 11 20.4995ZM6 20.4995C5.69396 20.4995 5.43313 20.3917 5.2175 20.1761C5.00208 19.9607 4.89437 19.6999 4.89437 19.3939C4.89437 19.0877 5.00208 18.8268 5.2175 18.6114C5.43313 18.3958 5.69396 18.288 6 18.288C6.30604 18.288 6.56688 18.3958 6.7825 18.6114C6.99792 18.8268 7.10563 19.0877 7.10563 19.3939C7.10563 19.6999 6.99792 19.9607 6.7825 20.1761C6.56688 20.3917 6.30604 20.4995 6 20.4995ZM16 20.4995C15.694 20.4995 15.4331 20.3917 15.2175 20.1761C15.0021 19.9607 14.8944 19.6999 14.8944 19.3939C14.8944 19.0877 15.0021 18.8268 15.2175 18.6114C15.4331 18.3958 15.694 18.288 16 18.288C16.306 18.288 16.5669 18.3958 16.7825 18.6114C16.9979 18.8268 17.1056 19.0877 17.1056 19.3939C17.1056 19.6999 16.9979 19.9607 16.7825 20.1761C16.5669 20.3917 16.306 20.4995 16 20.4995Z" fill="#1C1B1F"/>
</svg>
