<svg width="24" height="24" viewBox="0 0 24 24" fill="none" xmlns="http://www.w3.org/2000/svg">
<g id="chat">
<mask id="mask0_226_4525" style="mask-type:alpha" maskUnits="userSpaceOnUse" x="0" y="-1" width="24" height="25">
<rect id="Bounding box" y="-0.000976562" width="24" height="24" fill="#D9D9D9"/>
</mask>
<g mask="url(#mask0_226_4525)">
<path id="chat_2" d="M6.0385 17.499L4.0365 19.5008C3.752 19.7854 3.42475 19.8499 3.05475 19.6943C2.68492 19.5384 2.5 19.2579 2.5 18.8528V4.30677C2.5 3.80161 2.675 3.37402 3.025 3.02402C3.375 2.67402 3.80258 2.49902 4.30775 2.49902H19.6923C20.1974 2.49902 20.625 2.67402 20.975 3.02402C21.325 3.37402 21.5 3.80161 21.5 4.30677V15.6913C21.5 16.1964 21.325 16.624 20.975 16.974C20.625 17.324 20.1974 17.499 19.6923 17.499H6.0385ZM5.4 15.999H19.6923C19.7693 15.999 19.8398 15.9669 19.9038 15.9028C19.9679 15.8388 20 15.7683 20 15.6913V4.30677C20 4.22977 19.9679 4.15927 19.9038 4.09527C19.8398 4.03111 19.7693 3.99902 19.6923 3.99902H4.30775C4.23075 3.99902 4.16025 4.03111 4.09625 4.09527C4.03208 4.15927 4 4.22977 4 4.30677V17.3838L5.4 15.999ZM7 13.749H13C13.2128 13.749 13.391 13.6772 13.5345 13.5335C13.6782 13.39 13.75 13.2119 13.75 12.999C13.75 12.7862 13.6782 12.608 13.5345 12.4645C13.391 12.3209 13.2128 12.249 13 12.249H7C6.78717 12.249 6.609 12.3209 6.4655 12.4645C6.32183 12.608 6.25 12.7862 6.25 12.999C6.25 13.2119 6.32183 13.39 6.4655 13.5335C6.609 13.6772 6.78717 13.749 7 13.749ZM7 10.749H17C17.2128 10.749 17.391 10.6772 17.5345 10.5335C17.6782 10.39 17.75 10.2119 17.75 9.99902C17.75 9.78619 17.6782 9.60802 17.5345 9.46452C17.391 9.32086 17.2128 9.24902 17 9.24902H7C6.78717 9.24902 6.609 9.32086 6.4655 9.46452C6.32183 9.60802 6.25 9.78619 6.25 9.99902C6.25 10.2119 6.32183 10.39 6.4655 10.5335C6.609 10.6772 6.78717 10.749 7 10.749ZM7 7.74902H17C17.2128 7.74902 17.391 7.67719 17.5345 7.53352C17.6782 7.39002 17.75 7.21186 17.75 6.99902C17.75 6.78619 17.6782 6.60802 17.5345 6.46452C17.391 6.32086 17.2128 6.24902 17 6.24902H7C6.78717 6.24902 6.609 6.32086 6.4655 6.46452C6.32183 6.60802 6.25 6.78619 6.25 6.99902C6.25 7.21186 6.32183 7.39002 6.4655 7.53352C6.609 7.67719 6.78717 7.74902 7 7.74902Z" fill="white"/>
</g>
</g>
</svg>
