<svg width="32" height="32" viewBox="0 0 32 32" fill="none" xmlns="http://www.w3.org/2000/svg">
<g id="close">
<mask id="mask0_226_2894" style="mask-type:alpha" maskUnits="userSpaceOnUse" x="0" y="0" width="32" height="32">
<rect id="Bounding box" width="32" height="32" fill="#D9D9D9"/>
</mask>
<g mask="url(#mask0_226_2894)">
<path id="close_2" d="M15.9981 17.405L9.23406 24.1693C9.0494 24.3538 8.81728 24.4482 8.53773 24.4527C8.2584 24.4569 8.02206 24.3625 7.82873 24.1693C7.63562 23.976 7.53906 23.7418 7.53906 23.4667C7.53906 23.1916 7.63562 22.9573 7.82873 22.764L14.5931 16L7.82873 9.23602C7.64428 9.05135 7.54984 8.81924 7.5454 8.53968C7.54117 8.26035 7.63562 8.02402 7.82873 7.83068C8.02206 7.63757 8.25628 7.54102 8.5314 7.54102C8.80651 7.54102 9.04073 7.63757 9.23406 7.83068L15.9981 14.595L22.7621 7.83068C22.9467 7.64624 23.1788 7.55179 23.4584 7.54735C23.7377 7.54313 23.9741 7.63757 24.1674 7.83068C24.3605 8.02402 24.4571 8.25824 24.4571 8.53335C24.4571 8.80846 24.3605 9.04268 24.1674 9.23602L17.4031 16L24.1674 22.764C24.3518 22.9487 24.4463 23.1808 24.4507 23.4603C24.455 23.7397 24.3605 23.976 24.1674 24.1693C23.9741 24.3625 23.7398 24.459 23.4647 24.459C23.1896 24.459 22.9554 24.3625 22.7621 24.1693L15.9981 17.405Z" fill="#1C1B1F"/>
</g>
</g>
</svg>
