<svg width="32" height="26" viewBox="0 0 32 26" fill="none" xmlns="http://www.w3.org/2000/svg">
<path d="M31.8332 3.51292V22.4871C31.8332 23.329 31.5415 24.0417 30.9582 24.625C30.3748 25.2083 29.6622 25.5 28.8203 25.5H3.17942C2.33748 25.5 1.62484 25.2083 1.0415 24.625C0.458171 24.0417 0.166504 23.329 0.166504 22.4871V3.51292C0.166504 2.67097 0.458171 1.95833 1.0415 1.375C1.62484 0.791667 2.33748 0.5 3.17942 0.5H28.8203C29.6622 0.5 30.3748 0.791667 30.9582 1.375C31.5415 1.95833 31.8332 2.67097 31.8332 3.51292ZM2.6665 7.00667H29.3332V3.51292C29.3332 3.38458 29.2797 3.26708 29.1728 3.16042C29.0661 3.05347 28.9486 3 28.8203 3H3.17942C3.05109 3 2.93359 3.05347 2.82692 3.16042C2.71998 3.26708 2.6665 3.38458 2.6665 3.51292V7.00667ZM2.6665 12.3267V22.4871C2.6665 22.6154 2.71998 22.7329 2.82692 22.8396C2.93359 22.9465 3.05109 23 3.17942 23H28.8203C28.9486 23 29.0661 22.9465 29.1728 22.8396C29.2797 22.7329 29.3332 22.6154 29.3332 22.4871V12.3267H2.6665Z" fill="#002B5B"/>
</svg>
