<svg width="13" height="16" viewBox="0 0 13 16" fill="none" xmlns="http://www.w3.org/2000/svg">
<path d="M1.83594 8.64039V15.291C1.83594 15.4681 1.77601 15.6165 1.65615 15.7362C1.53628 15.8561 1.38781 15.916 1.21073 15.916C1.03351 15.916 0.885104 15.8561 0.765521 15.7362C0.645799 15.6165 0.585938 15.4681 0.585938 15.291V1.66935C0.585938 1.45588 0.65816 1.27699 0.802604 1.13268C0.94691 0.988238 1.1258 0.916016 1.33927 0.916016H11.9289C12.0657 0.916016 12.1889 0.947682 12.2984 1.01102C12.4082 1.07421 12.4952 1.15643 12.5597 1.25768C12.6241 1.35893 12.6641 1.47157 12.6797 1.5956C12.6951 1.71949 12.6743 1.84588 12.6174 1.97477L11.3793 4.77831L12.6174 7.58164C12.6743 7.71053 12.6951 7.83692 12.6797 7.96081C12.6641 8.08483 12.6241 8.19747 12.5597 8.29872C12.4952 8.39997 12.4082 8.4822 12.2984 8.54539C12.1889 8.60872 12.0657 8.64039 11.9289 8.64039H1.83594ZM1.83594 7.39039H11.1966L10.2943 5.38727C10.2057 5.19768 10.1614 4.99456 10.1614 4.77789C10.1614 4.56122 10.2057 4.35831 10.2943 4.16914L11.1966 2.16602H1.83594V7.39039Z" fill="#1C1B1F" fill-opacity="0.6"/>
</svg>
