<svg width="21" height="20" viewBox="0 0 21 20" fill="none" xmlns="http://www.w3.org/2000/svg">
<g id="group">
<mask id="mask0_226_705" style="mask-type:alpha" maskUnits="userSpaceOnUse" x="0" y="-1" width="21" height="21">
<rect id="Bounding box" x="0.0195312" y="-0.000976562" width="20" height="20" fill="#D9D9D9"/>
</mask>
<g mask="url(#mask0_226_705)">
<path id="group_2" d="M1.51953 14.2361C1.51953 13.8066 1.63036 13.4233 1.85203 13.0863C2.0737 12.7492 2.36974 12.487 2.74016 12.2996C3.5321 11.9122 4.32842 11.6136 5.12912 11.4036C5.92995 11.1937 6.81002 11.0888 7.76932 11.0888C8.72877 11.0888 9.60884 11.1937 10.4095 11.4036C11.2104 11.6136 12.0068 11.9122 12.7987 12.2996C13.1691 12.487 13.4652 12.7492 13.6868 13.0863C13.9085 13.4233 14.0193 13.8066 14.0193 14.2361V14.8227C14.0193 15.1581 13.8962 15.453 13.65 15.7073C13.4037 15.9616 13.1048 16.0888 12.7533 16.0888H2.78536C2.43398 16.0888 2.13516 15.9656 1.88891 15.7194C1.64266 15.473 1.51953 15.1741 1.51953 14.8227V14.2361ZM17.2566 16.0888H15.3639C15.4686 15.8975 15.5485 15.694 15.6035 15.4781C15.6585 15.2623 15.686 15.0438 15.686 14.8227V14.1336C15.686 13.5866 15.5521 13.0653 15.2843 12.5696C15.0164 12.074 14.6364 11.6488 14.1443 11.294C14.7031 11.3773 15.2336 11.5063 15.7358 11.6808C16.2379 11.8556 16.717 12.062 17.1733 12.3002C17.6038 12.5299 17.9363 12.8007 18.1708 13.1125C18.4052 13.4242 18.5224 13.7645 18.5224 14.1336V14.8227C18.5224 15.1741 18.3993 15.473 18.1531 15.7194C17.9068 15.9656 17.608 16.0888 17.2566 16.0888ZM7.76932 9.74251C6.96724 9.74251 6.28064 9.45696 5.70953 8.88585C5.13842 8.3146 4.85287 7.62793 4.85287 6.82585C4.85287 6.02376 5.13842 5.33717 5.70953 4.76605C6.28064 4.1948 6.96724 3.90918 7.76932 3.90918C8.57141 3.90918 9.25807 4.1948 9.82932 4.76605C10.4004 5.33717 10.686 6.02376 10.686 6.82585C10.686 7.62793 10.4004 8.3146 9.82932 8.88585C9.25807 9.45696 8.57141 9.74251 7.76932 9.74251ZM14.9647 6.82585C14.9647 7.62793 14.6792 8.3146 14.1081 8.88585C13.537 9.45696 12.8504 9.74251 12.0483 9.74251C11.9543 9.74251 11.8346 9.73182 11.6893 9.71043C11.5439 9.68904 11.4243 9.66557 11.3304 9.64001C11.659 9.24487 11.9115 8.80654 12.0881 8.32501C12.2645 7.84349 12.3527 7.34349 12.3527 6.82501C12.3527 6.3064 12.2627 5.80828 12.0827 5.33064C11.9027 4.85314 11.6519 4.41355 11.3304 4.01189C11.4499 3.96911 11.5696 3.94133 11.6893 3.92855C11.8089 3.91564 11.9286 3.90918 12.0483 3.90918C12.8504 3.90918 13.537 4.1948 14.1081 4.76605C14.6792 5.33717 14.9647 6.02376 14.9647 6.82585ZM2.76932 14.8388H12.7693V14.2361C12.7693 14.062 12.7258 13.9072 12.6387 13.7715C12.5518 13.6358 12.4137 13.5172 12.2245 13.4156C11.5387 13.062 10.8325 12.7941 10.106 12.6119C9.37946 12.4298 8.60057 12.3388 7.76932 12.3388C6.93821 12.3388 6.15939 12.4298 5.43286 12.6119C4.70634 12.7941 4.00016 13.062 3.31432 13.4156C3.12516 13.5172 2.98703 13.6358 2.89995 13.7715C2.81286 13.9072 2.76932 14.062 2.76932 14.2361V14.8388ZM7.76932 8.49251C8.22766 8.49251 8.62002 8.32932 8.94641 8.00293C9.2728 7.67654 9.43599 7.28418 9.43599 6.82585C9.43599 6.36751 9.2728 5.97515 8.94641 5.64876C8.62002 5.32237 8.22766 5.15918 7.76932 5.15918C7.31099 5.15918 6.91863 5.32237 6.59224 5.64876C6.26585 5.97515 6.10266 6.36751 6.10266 6.82585C6.10266 7.28418 6.26585 7.67654 6.59224 8.00293C6.91863 8.32932 7.31099 8.49251 7.76932 8.49251Z" fill="white"/>
</g>
</g>
</svg>
