<svg width="14" height="14" viewBox="0 0 14 14" fill="none" xmlns="http://www.w3.org/2000/svg">
<g clip-path="url(#clip0_65_13021)">
<path d="M6.65134 5.25951C6.65134 4.51289 6.04636 3.90791 5.29974 3.90791C4.55311 3.90791 3.94813 4.51289 3.94813 5.25951C3.94813 6.00614 4.55311 6.61111 5.29974 6.61111C6.04636 6.61111 6.65134 6.00614 6.65134 5.25951Z" fill="white"/>
<path fill-rule="evenodd" clip-rule="evenodd" d="M9.89519 4.56911V3.24724C9.89519 2.92719 10.239 2.72499 10.5185 2.88015L11.7085 3.54135C11.9961 3.70138 11.9961 4.11497 11.7085 4.275L10.5185 4.93621C10.239 5.09137 9.89519 4.88917 9.89519 4.56911ZM7.4623 3.90791C7.4623 2.11893 8.91717 0.664062 10.7061 0.664062C12.4951 0.664062 13.95 2.11893 13.95 3.90791C13.95 5.69689 12.4951 7.15175 10.7061 7.15175C8.91717 7.15175 7.4623 5.69689 7.4623 3.90791ZM8.54358 3.90791C8.54358 5.10056 9.51349 6.07047 10.7061 6.07047C11.8988 6.07047 12.8687 5.10056 12.8687 3.90791C12.8687 2.71525 11.8988 1.74534 10.7061 1.74534C9.51349 1.74534 8.54358 2.71525 8.54358 3.90791ZM13.4094 7.15175C13.1104 7.15175 12.8687 7.39396 12.8687 7.69239V8.77368C12.8687 9.6679 12.141 10.3956 11.2468 10.3956H3.67781C2.78359 10.3956 2.05589 9.6679 2.05589 8.77368V4.44855C2.05589 3.55433 2.78359 2.82663 3.67781 2.82663H6.38102C6.67999 2.82663 6.92166 2.58442 6.92166 2.28599C6.92166 1.98755 6.67999 1.74534 6.38102 1.74534H3.67781C2.18727 1.74534 0.974609 2.958 0.974609 4.44855V8.77368C0.974609 10.2642 2.18727 11.4769 3.67781 11.4769H6.92166V12.5582H4.7591C4.46012 12.5582 4.21846 12.7998 4.21846 13.0988C4.21846 13.3978 4.46012 13.6394 4.7591 13.6394H10.1655C10.4645 13.6394 10.7061 13.3978 10.7061 13.0988C10.7061 12.7998 10.4645 12.5582 10.1655 12.5582H8.00294V11.4769H11.2468C12.7373 11.4769 13.95 10.2642 13.95 8.77368V7.69239C13.95 7.39396 13.7083 7.15175 13.4094 7.15175Z" fill="#40E0D0"/>
<path d="M3.17123 8.58391C3.06689 8.86342 3.208 9.17483 3.48805 9.27972C3.7654 9.38298 4.07897 9.24349 4.18385 8.9629C4.34767 8.52606 4.79586 8.23249 5.2992 8.23249C5.80253 8.23249 6.25127 8.52606 6.41454 8.9629C6.51888 9.24566 6.83786 9.38352 7.11034 9.27972C7.3904 9.17483 7.5315 8.86288 7.42716 8.58391C7.10608 7.72716 6.25105 7.15197 5.2992 7.15175C4.34734 7.15197 3.49231 7.72716 3.17123 8.58391Z" fill="white"/>
</g>
<defs>
<clipPath id="clip0_65_13021">
<rect width="12.9754" height="12.9754" fill="white" transform="translate(0.974609 0.663574)"/>
</clipPath>
</defs>
</svg>
