<svg width="16" height="17" viewBox="0 0 16 17" fill="none" xmlns="http://www.w3.org/2000/svg">
<path d="M0.5 15.3015V6.45524C0.5 6.16907 0.564 5.89799 0.692 5.64199C0.820166 5.38582 0.997167 5.1749 1.223 5.00924L6.9155 0.720738C7.23133 0.479738 7.59233 0.359238 7.9985 0.359238C8.40467 0.359238 8.76667 0.479738 9.0845 0.720738L14.777 5.00924C15.0028 5.1749 15.1798 5.38582 15.308 5.64199C15.436 5.89799 15.5 6.16907 15.5 6.45524V15.3015C15.5 15.7105 15.3523 16.0627 15.0568 16.3582C14.7613 16.6537 14.409 16.8015 14 16.8015H10.8077C10.5516 16.8015 10.3369 16.7148 10.1637 16.5415C9.99042 16.3683 9.90375 16.1537 9.90375 15.8975V11.013C9.90375 10.757 9.81717 10.5423 9.644 10.369C9.47083 10.1958 9.25617 10.1092 9 10.1092H7C6.74383 10.1092 6.52917 10.1958 6.356 10.369C6.18283 10.5423 6.09625 10.757 6.09625 11.013V15.8975C6.09625 16.1537 6.00958 16.3683 5.83625 16.5415C5.66308 16.7148 5.44842 16.8015 5.19225 16.8015H2C1.591 16.8015 1.23875 16.6537 0.94325 16.3582C0.64775 16.0627 0.5 15.7105 0.5 15.3015Z" fill="#002B5B"/>
</svg>
