<svg width="22" height="14" viewBox="0 0 22 14" fill="none" xmlns="http://www.w3.org/2000/svg">
<path d="M3.94664 7.9372L8.10039 12.091C8.27352 12.2641 8.36206 12.4817 8.36602 12.7438C8.36997 13.0056 8.28143 13.2272 8.10039 13.4084C7.91935 13.5895 7.69976 13.68 7.44164 13.68C7.18372 13.68 6.96424 13.5895 6.7832 13.4084L1.16539 7.79064C1.04831 7.67355 0.965807 7.55011 0.917891 7.42032C0.869766 7.29053 0.845703 7.15032 0.845703 6.9997C0.845703 6.84907 0.869766 6.70887 0.917891 6.57907C0.965807 6.44928 1.04831 6.32584 1.16539 6.20876L6.7832 0.590947C6.95633 0.418031 7.17383 0.329489 7.4357 0.325322C7.69779 0.321364 7.91935 0.409906 8.10039 0.590947C8.28143 0.772197 8.37195 0.991781 8.37195 1.2497C8.37195 1.50761 8.28143 1.7272 8.10039 1.90845L3.94664 6.0622H20.687C20.953 6.0622 21.1757 6.15199 21.3551 6.33157C21.5347 6.51095 21.6245 6.73366 21.6245 6.9997C21.6245 7.26574 21.5347 7.48845 21.3551 7.66782C21.1757 7.84741 20.953 7.9372 20.687 7.9372H3.94664Z" fill="#1C1B1F" fill-opacity="0.6"/>
</svg>
