<svg width="21" height="20" viewBox="0 0 21 20" fill="none" xmlns="http://www.w3.org/2000/svg">
<g id="lock">
<mask id="mask0_226_673" style="mask-type:alpha" maskUnits="userSpaceOnUse" x="0" y="-1" width="21" height="21">
<rect id="Bounding box" x="0.0195312" y="-0.000976562" width="20" height="20" fill="#D9D9D9"/>
</mask>
<g mask="url(#mask0_226_673)">
<path id="lock_2" d="M5.27599 17.9158C4.86043 17.9158 4.50543 17.7686 4.21099 17.4743C3.91668 17.1799 3.76953 16.8249 3.76953 16.4093V8.5889C3.76953 8.17334 3.91668 7.81834 4.21099 7.5239C4.50543 7.22959 4.86043 7.08244 5.27599 7.08244H6.26953V5.41577C6.26953 4.37522 6.63439 3.49008 7.36411 2.76035C8.09384 2.03063 8.97898 1.66577 10.0195 1.66577C11.0601 1.66577 11.9452 2.03063 12.6749 2.76035C13.4047 3.49008 13.7695 4.37522 13.7695 5.41577V7.08244H14.7631C15.1786 7.08244 15.5336 7.22959 15.8281 7.5239C16.1224 7.81834 16.2695 8.17334 16.2695 8.5889V16.4093C16.2695 16.8249 16.1224 17.1799 15.8281 17.4743C15.5336 17.7686 15.1786 17.9158 14.7631 17.9158H5.27599ZM5.27599 16.6658H14.7631C14.8379 16.6658 14.8994 16.6417 14.9474 16.5937C14.9955 16.5456 15.0195 16.4842 15.0195 16.4093V8.5889C15.0195 8.51404 14.9955 8.45258 14.9474 8.40452C14.8994 8.35647 14.8379 8.33244 14.7631 8.33244H5.27599C5.20113 8.33244 5.13967 8.35647 5.09161 8.40452C5.04356 8.45258 5.01953 8.51404 5.01953 8.5889V16.4093C5.01953 16.4842 5.04356 16.5456 5.09161 16.5937C5.13967 16.6417 5.20113 16.6658 5.27599 16.6658ZM10.0195 13.9574C10.4244 13.9574 10.7687 13.8156 11.0524 13.532C11.3361 13.2483 11.4779 12.904 11.4779 12.4991C11.4779 12.0942 11.3361 11.7499 11.0524 11.4662C10.7687 11.1826 10.4244 11.0408 10.0195 11.0408C9.61467 11.0408 9.27036 11.1826 8.98661 11.4662C8.703 11.7499 8.5612 12.0942 8.5612 12.4991C8.5612 12.904 8.703 13.2483 8.98661 13.532C9.27036 13.8156 9.61467 13.9574 10.0195 13.9574ZM7.51953 7.08244H12.5195V5.41577C12.5195 4.72133 12.2765 4.13105 11.7904 3.64494C11.3043 3.15883 10.714 2.91577 10.0195 2.91577C9.32509 2.91577 8.73481 3.15883 8.2487 3.64494C7.76259 4.13105 7.51953 4.72133 7.51953 5.41577V7.08244Z" fill="white"/>
</g>
</g>
</svg>
