<svg width="13" height="13" viewBox="0 0 13 13" fill="none" xmlns="http://www.w3.org/2000/svg">
<path d="M1.75901 12.5209C1.40118 12.5209 1.09831 12.397 0.850391 12.149C0.602474 11.9011 0.478516 11.5983 0.478516 11.2404V1.75974C0.478516 1.40191 0.602474 1.09904 0.850391 0.851123C1.09831 0.603206 1.40118 0.479248 1.75901 0.479248H5.97501C6.12564 0.479248 6.25185 0.53013 6.35361 0.631894C6.45526 0.73354 6.50608 0.859741 6.50608 1.0105C6.50608 1.16126 6.45526 1.28746 6.35361 1.3891C6.25185 1.49087 6.12564 1.54175 5.97501 1.54175H1.75901C1.70446 1.54175 1.65453 1.56447 1.60919 1.60992C1.56374 1.65526 1.54102 1.7052 1.54102 1.75974V11.2404C1.54102 11.295 1.56374 11.3449 1.60919 11.3902C1.65453 11.4357 1.70446 11.4584 1.75901 11.4584H5.97501C6.12564 11.4584 6.25185 11.5093 6.35361 11.6111C6.45526 11.7127 6.50608 11.8389 6.50608 11.9897C6.50608 12.1404 6.45526 12.2666 6.35361 12.3683C6.25185 12.47 6.12564 12.5209 5.97501 12.5209H1.75901ZM10.4782 7.03133H4.97378C4.82302 7.03133 4.69676 6.98045 4.59499 6.87869C4.49335 6.77704 4.44253 6.65084 4.44253 6.50008C4.44253 6.34932 4.49335 6.22312 4.59499 6.12148C4.69676 6.01971 4.82302 5.96883 4.97378 5.96883H10.4782L9.11611 4.60671C9.01801 4.5086 8.96783 4.38895 8.96559 4.24776C8.96335 4.10656 9.01352 3.98101 9.11611 3.8711C9.2187 3.76119 9.34313 3.70441 9.4894 3.70075C9.63555 3.69721 9.76359 3.75033 9.8735 3.86012L12.0653 6.05188C12.1932 6.17997 12.2572 6.32937 12.2572 6.50008C12.2572 6.67079 12.1932 6.82019 12.0653 6.94828L9.8735 9.14004C9.76819 9.24535 9.64311 9.29729 9.49825 9.29587C9.3534 9.29458 9.22602 9.23897 9.11611 9.12906C9.01352 9.01915 8.96405 8.89295 8.96771 8.75046C8.97126 8.60785 9.02438 8.48524 9.12709 8.38265L10.4782 7.03133Z" fill="white"/>
</svg>
