<svg width="24" height="24" viewBox="0 0 24 24" fill="none" xmlns="http://www.w3.org/2000/svg">
<g id="mic_off">
<mask id="mask0_226_1257" style="mask-type:alpha" maskUnits="userSpaceOnUse" x="0" y="-1" width="24" height="25">
<rect id="Bounding box" y="-0.00195312" width="24" height="24" fill="#D9D9D9"/>
</mask>
<g mask="url(#mask0_226_1257)">
<path id="mic_off_2" d="M16.525 13.8998C16.3462 13.805 16.2282 13.6537 16.171 13.446C16.114 13.2384 16.133 13.0467 16.2278 12.871C16.3253 12.7005 16.4003 12.5191 16.4528 12.3268C16.5055 12.1345 16.5452 11.9396 16.572 11.7423C16.6195 11.5295 16.7152 11.3522 16.859 11.2105C17.0029 11.0689 17.181 10.998 17.3935 10.998C17.6062 10.998 17.7817 11.0756 17.92 11.2308C18.0585 11.3858 18.1175 11.5697 18.097 11.7825C18.0599 12.0954 17.998 12.4047 17.9115 12.7105C17.825 13.0162 17.7042 13.3069 17.549 13.5825C17.4542 13.7647 17.3045 13.8869 17.1 13.949C16.8955 14.0112 16.7039 13.9948 16.525 13.8998ZM11.6433 2.49805C12.342 2.49805 12.9333 2.74005 13.4173 3.22405C13.9013 3.70805 14.1433 4.29938 14.1433 4.99805V9.24805C14.1433 9.49805 14.0653 9.68555 13.9093 9.81055C13.7535 9.93555 13.582 9.99805 13.395 9.99805C13.2079 9.99805 13.0358 9.93271 12.8788 9.80205C12.7218 9.67138 12.6433 9.48155 12.6433 9.23255V4.99805C12.6433 4.71471 12.5475 4.47721 12.3558 4.28555C12.1641 4.09388 11.9266 3.99805 11.6433 3.99805C11.36 3.99805 11.1225 4.09388 10.9308 4.28555C10.7391 4.47721 10.6433 4.71471 10.6433 4.99805V5.7288C10.6433 5.9788 10.5654 6.1663 10.4095 6.2913C10.2535 6.4163 10.082 6.4788 9.89504 6.4788C9.70804 6.4788 9.53596 6.41346 9.37879 6.2828C9.22179 6.15213 9.14329 5.96238 9.14329 5.71355V4.99805C9.14329 4.29938 9.38529 3.70805 9.86929 3.22405C10.3533 2.74005 10.9446 2.49805 11.6433 2.49805ZM10.8933 19.998V17.4518C9.40479 17.2903 8.12912 16.6814 7.06629 15.625C6.00346 14.5685 5.38104 13.2845 5.19904 11.773C5.17221 11.5602 5.22779 11.3779 5.36579 11.226C5.50379 11.074 5.67937 10.998 5.89254 10.998C6.10587 10.998 6.28687 11.0709 6.43554 11.2165C6.58421 11.362 6.67712 11.5424 6.71429 11.7575C6.89646 12.9922 7.45387 14.0076 8.38654 14.8038C9.31921 15.6 10.4048 15.998 11.6433 15.998C12.2868 15.998 12.8916 15.8833 13.4578 15.6538C14.0238 15.4243 14.5247 15.1064 14.9605 14.7L16.0298 15.769C15.5465 16.223 14.9965 16.5994 14.3798 16.898C13.7631 17.1967 13.101 17.3813 12.3933 17.4518V19.998C12.3933 20.2105 12.3214 20.3886 12.1775 20.5323C12.0337 20.6761 11.8555 20.748 11.6428 20.748C11.4303 20.748 11.2522 20.6761 11.1085 20.5323C10.965 20.3886 10.8933 20.2105 10.8933 19.998ZM19.3395 21.1865L2.20479 4.0518C2.06629 3.9133 1.99546 3.7393 1.99229 3.5298C1.98912 3.32013 2.05996 3.14288 2.20479 2.99805C2.34962 2.85321 2.52529 2.7808 2.73179 2.7808C2.93812 2.7808 3.11371 2.85321 3.25854 2.99805L20.3933 20.1325C20.5318 20.271 20.6026 20.4451 20.6058 20.6548C20.609 20.8643 20.5381 21.0415 20.3933 21.1865C20.2485 21.3314 20.0728 21.4038 19.8663 21.4038C19.66 21.4038 19.4844 21.3314 19.3395 21.1865Z" fill="white"/>
</g>
</g>
</svg>
