<svg width="20" height="20" viewBox="0 0 20 20" fill="none" xmlns="http://www.w3.org/2000/svg">
<g id="more_vert">
<mask id="mask0_226_668" style="mask-type:alpha" maskUnits="userSpaceOnUse" x="0" y="0" width="20" height="20">
<rect id="Bounding box" x="0.5" y="0.499023" width="19" height="19" fill="#D9D9D9"/>
</mask>
<g mask="url(#mask0_226_668)">
<path id="more_vert_2" d="M10 15.7538C9.67344 15.7538 9.39391 15.6375 9.16143 15.4049C8.92881 15.1724 8.8125 14.8928 8.8125 14.5663C8.8125 14.2397 8.92881 13.9601 9.16143 13.7275C9.39391 13.495 9.67344 13.3788 10 13.3788C10.3266 13.3788 10.6061 13.495 10.8386 13.7275C11.0712 13.9601 11.1875 14.2397 11.1875 14.5663C11.1875 14.8928 11.0712 15.1724 10.8386 15.4049C10.6061 15.6375 10.3266 15.7538 10 15.7538ZM10 11.1865C9.67344 11.1865 9.39391 11.0702 9.16143 10.8375C8.92881 10.6051 8.8125 10.3255 8.8125 9.99896C8.8125 9.6724 8.92881 9.39288 9.16143 9.16039C9.39391 8.92777 9.67344 8.81146 10 8.81146C10.3266 8.81146 10.6061 8.92777 10.8386 9.16039C11.0712 9.39288 11.1875 9.6724 11.1875 9.99896C11.1875 10.3255 11.0712 10.6051 10.8386 10.8375C10.6061 11.0702 10.3266 11.1865 10 11.1865ZM10 6.61914C9.67344 6.61914 9.39391 6.5029 9.16143 6.27041C8.92881 6.03779 8.8125 5.7582 8.8125 5.43164C8.8125 5.10508 8.92881 4.82555 9.16143 4.59307C9.39391 4.36045 9.67344 4.24414 10 4.24414C10.3266 4.24414 10.6061 4.36045 10.8386 4.59307C11.0712 4.82555 11.1875 5.10508 11.1875 5.43164C11.1875 5.7582 11.0712 6.03779 10.8386 6.27041C10.6061 6.5029 10.3266 6.61914 10 6.61914Z" fill="white"/>
</g>
</g>
</svg>
