<svg width="20" height="20" viewBox="0 0 20 20" fill="none" xmlns="http://www.w3.org/2000/svg">
<g id="keep">
<mask id="mask0_226_686" style="mask-type:alpha" maskUnits="userSpaceOnUse" x="0" y="0" width="20" height="20">
<rect id="Bounding box" x="0.5" y="0.499023" width="19" height="19" fill="#D9D9D9"/>
</mask>
<g mask="url(#mask0_226_686)">
<path id="keep_2" d="M12.7701 4.45728V10.1664L14.0092 11.4057C14.0681 11.4646 14.1123 11.5308 14.1418 11.6044C14.1712 11.6779 14.186 11.7539 14.186 11.8324V12.1709C14.186 12.3377 14.1283 12.4792 14.013 12.5954C13.8978 12.7117 13.755 12.7698 13.5845 12.7698H10.593V17.0357C10.593 17.2039 10.536 17.3449 10.4222 17.4586C10.3083 17.5724 10.1673 17.6292 9.99903 17.6292C9.83067 17.6292 9.68969 17.5724 9.57608 17.4586C9.46235 17.3449 9.40548 17.2039 9.40548 17.0357V12.7698H6.41397C6.2435 12.7698 6.10067 12.7117 5.98548 12.5954C5.87016 12.4792 5.8125 12.3377 5.8125 12.1709V11.8324C5.8125 11.7539 5.82721 11.6779 5.85664 11.6044C5.88619 11.5308 5.93039 11.4646 5.98924 11.4057L7.2284 10.1664V4.45728H7.03048C6.86225 4.45728 6.72127 4.40034 6.60753 4.28647C6.49366 4.17261 6.43673 4.03156 6.43673 3.86333C6.43673 3.69497 6.49366 3.55398 6.60753 3.44038C6.72127 3.32664 6.86225 3.26978 7.03048 3.26978H12.968C13.1362 3.26978 13.2772 3.32671 13.3909 3.44058C13.5048 3.55445 13.5617 3.69549 13.5617 3.86372C13.5617 4.03208 13.5048 4.17307 13.3909 4.28667C13.2772 4.40041 13.1362 4.45728 12.968 4.45728H12.7701Z" fill="white"/>
</g>
</g>
</svg>
