<svg width="60" height="60" viewBox="0 0 60 60" fill="none" xmlns="http://www.w3.org/2000/svg">
<rect width="60" height="60" rx="9" fill="#40E0D0"/>
<mask id="mask0_65_13081" style="mask-type:alpha" maskUnits="userSpaceOnUse" x="12" y="12" width="36" height="36">
<rect x="12" y="12" width="36" height="36" fill="#D9D9D9"/>
</mask>
<g mask="url(#mask0_65_13081)">
<path d="M28.875 31.125H21.375C21.0562 31.125 20.7891 31.0171 20.5736 30.8014C20.3579 30.5856 20.25 30.3184 20.25 29.9996C20.25 29.6806 20.3579 29.4135 20.5736 29.1982C20.7891 28.9827 21.0562 28.875 21.375 28.875H28.875V21.375C28.875 21.0562 28.9829 20.7891 29.1986 20.5736C29.4144 20.3579 29.6816 20.25 30.0004 20.25C30.3194 20.25 30.5865 20.3579 30.8018 20.5736C31.0173 20.7891 31.125 21.0562 31.125 21.375V28.875H38.625C38.9438 28.875 39.2109 28.9829 39.4264 29.1986C39.6421 29.4144 39.75 29.6816 39.75 30.0004C39.75 30.3194 39.6421 30.5865 39.4264 30.8018C39.2109 31.0173 38.9438 31.125 38.625 31.125H31.125V38.625C31.125 38.9438 31.0171 39.2109 30.8014 39.4264C30.5856 39.6421 30.3184 39.75 29.9996 39.75C29.6806 39.75 29.4135 39.6421 29.1982 39.4264C28.9827 39.2109 28.875 38.9438 28.875 38.625V31.125Z" fill="#002B5B"/>
</g>
</svg>
