<svg width="20" height="20" viewBox="0 0 20 20" fill="none" xmlns="http://www.w3.org/2000/svg">
<g id="question_mark">
<mask id="mask0_226_739" style="mask-type:alpha" maskUnits="userSpaceOnUse" x="0" y="0" width="20" height="20">
<rect id="Bounding box" x="0.878906" y="0.878906" width="18.24" height="18.24" fill="#D9D9D9"/>
</mask>
<g mask="url(#mask0_226_739)">
<path id="question_mark_2" d="M12.2441 6.97184C12.2441 6.34433 12.0344 5.84032 11.615 5.45982C11.1955 5.07944 10.6418 4.88925 9.95384 4.88925C9.51836 4.88925 9.13228 4.9781 8.7956 5.15582C8.45892 5.33366 8.16828 5.60137 7.92369 5.95895C7.77954 6.16263 7.58688 6.28296 7.34571 6.31995C7.10466 6.35706 6.89395 6.29816 6.71358 6.14325C6.5802 6.02722 6.50401 5.88181 6.48501 5.70701C6.46601 5.53208 6.50667 5.36615 6.60699 5.20921C6.99281 4.62565 7.47003 4.18188 8.03864 3.87788C8.60712 3.57388 9.24552 3.42188 9.95384 3.42188C11.0851 3.42188 12.0059 3.74583 12.7162 4.39373C13.4265 5.04163 13.7816 5.88542 13.7816 6.9251C13.7816 7.47559 13.6637 7.98004 13.428 8.43845C13.1921 8.89698 12.7902 9.39028 12.2222 9.91836C11.6902 10.4007 11.3273 10.7922 11.1334 11.0927C10.9394 11.3933 10.8269 11.7311 10.7957 12.1062C10.7646 12.3226 10.675 12.5028 10.5269 12.6469C10.3787 12.7912 10.2003 12.8634 9.99184 12.8634C9.78334 12.8634 9.60506 12.792 9.45699 12.6492C9.30891 12.5065 9.23488 12.3309 9.23488 12.1224C9.23488 11.6138 9.35103 11.1488 9.58334 10.7274C9.81577 10.306 10.2048 9.85262 10.7505 9.36736C11.3332 8.85588 11.7277 8.42907 11.9342 8.08695C12.1408 7.74495 12.2441 7.37324 12.2441 6.97184ZM9.95384 17.2187C9.643 17.2187 9.37529 17.1064 9.15071 16.8819C8.92613 16.6573 8.81384 16.3896 8.81384 16.0787C8.81384 15.7679 8.92613 15.5002 9.15071 15.2756C9.37529 15.051 9.643 14.9387 9.95384 14.9387C10.2647 14.9387 10.5324 15.051 10.757 15.2756C10.9815 15.5002 11.0938 15.7679 11.0938 16.0787C11.0938 16.3896 10.9815 16.6573 10.757 16.8819C10.5324 17.1064 10.2647 17.2187 9.95384 17.2187Z" fill="#001731"/>
</g>
</g>
</svg>
