<svg width="20" height="20" viewBox="0 0 20 20" fill="none" xmlns="http://www.w3.org/2000/svg">
<g id="radio_button_checked">
<mask id="mask0_226_710" style="mask-type:alpha" maskUnits="userSpaceOnUse" x="0" y="-1" width="20" height="21">
<rect id="Bounding box" y="-0.000976562" width="20" height="20" fill="#D9D9D9"/>
</mask>
<g mask="url(#mask0_226_710)">
<path id="radio_button_checked_2" d="M9.9987 13.7489C11.0393 13.7489 11.9244 13.3841 12.6541 12.6544C13.3838 11.9246 13.7487 11.0395 13.7487 9.99894C13.7487 8.95839 13.3838 8.07325 12.6541 7.34352C11.9244 6.6138 11.0393 6.24894 9.9987 6.24894C8.95814 6.24894 8.073 6.6138 7.34328 7.34352C6.61356 8.07325 6.2487 8.95839 6.2487 9.99894C6.2487 11.0395 6.61356 11.9246 7.34328 12.6544C8.073 13.3841 8.95814 13.7489 9.9987 13.7489ZM10.0002 17.9156C8.90516 17.9156 7.87592 17.7078 6.91245 17.2923C5.94898 16.8767 5.11092 16.3128 4.39828 15.6004C3.68564 14.888 3.12141 14.0503 2.70557 13.0873C2.28988 12.1242 2.08203 11.0953 2.08203 10.0004C2.08203 8.9054 2.28981 7.87616 2.70536 6.91269C3.12092 5.94922 3.68488 5.11116 4.39724 4.39853C5.1096 3.68589 5.94731 3.12165 6.91036 2.70582C7.87342 2.29012 8.90238 2.08228 9.99724 2.08228C11.0922 2.08228 12.1215 2.29005 13.0849 2.70561C14.0484 3.12116 14.8865 3.68512 15.5991 4.39748C16.3118 5.10984 16.876 5.94755 17.2918 6.91061C17.7075 7.87366 17.9154 8.90262 17.9154 9.99748C17.9154 11.0925 17.7076 12.1217 17.292 13.0852C16.8765 14.0487 16.3125 14.8867 15.6002 15.5994C14.8878 16.312 14.0501 16.8762 13.087 17.2921C12.124 17.7078 11.095 17.9156 10.0002 17.9156ZM9.9987 16.6656C11.8598 16.6656 13.4362 16.0198 14.7279 14.7281C16.0195 13.4364 16.6654 11.8601 16.6654 9.99894C16.6654 8.13783 16.0195 6.56144 14.7279 5.26978C13.4362 3.97811 11.8598 3.33228 9.9987 3.33228C8.13759 3.33228 6.5612 3.97811 5.26953 5.26978C3.97786 6.56144 3.33203 8.13783 3.33203 9.99894C3.33203 11.8601 3.97786 13.4364 5.26953 14.7281C6.5612 16.0198 8.13759 16.6656 9.9987 16.6656Z" fill="#FF6161"/>
</g>
</g>
</svg>
