<svg width="16" height="14" viewBox="0 0 16 14" fill="none" xmlns="http://www.w3.org/2000/svg">
<path d="M1.78945 13.25C1.36862 13.25 1.01237 13.1042 0.720703 12.8125C0.429036 12.5208 0.283203 12.1645 0.283203 11.7435V2.25646C0.283203 1.83549 0.429036 1.47917 0.720703 1.1875C1.01237 0.895833 1.36862 0.75 1.78945 0.75H11.2767C11.6976 0.75 12.0538 0.895833 12.3455 1.1875C12.6372 1.47917 12.783 1.83549 12.783 2.25646V6.07063L15.0715 3.78208C15.1945 3.65917 15.3325 3.62847 15.4857 3.69C15.639 3.75139 15.7157 3.86861 15.7157 4.04167V9.95833C15.7157 10.1314 15.639 10.2486 15.4857 10.31C15.3325 10.3715 15.1945 10.3408 15.0715 10.2179L12.783 7.92937V11.7435C12.783 12.1645 12.6372 12.5208 12.3455 12.8125C12.0538 13.1042 11.6976 13.25 11.2767 13.25H1.78945Z" fill="#FF6161"/>
</svg>
