<svg width="30" height="30" viewBox="0 0 30 30" fill="none" xmlns="http://www.w3.org/2000/svg">
<mask id="mask0_65_13102" style="mask-type:alpha" maskUnits="userSpaceOnUse" x="0" y="0" width="30" height="30">
<rect x="30" y="30" width="30" height="30" transform="rotate(-180 30 30)" fill="#D9D9D9"/>
</mask>
<g mask="url(#mask0_65_13102)">
<path d="M22.0534 14.0628L17.8996 9.90905C17.7265 9.73593 17.6379 9.51832 17.634 9.25624C17.63 8.99436 17.7186 8.7728 17.8996 8.59155C18.0807 8.41051 18.3002 8.31999 18.5584 8.31999C18.8163 8.31999 19.0358 8.41051 19.2168 8.59155L24.8346 14.2094C24.9517 14.3264 25.0342 14.4499 25.0821 14.5797C25.1302 14.7095 25.1543 14.8497 25.1543 15.0003C25.1543 15.1509 25.1302 15.2911 25.0821 15.4209C25.0342 15.5507 24.9517 15.6742 24.8346 15.7912L19.2168 21.4091C19.0437 21.582 18.8262 21.6705 18.5643 21.6747C18.3022 21.6786 18.0807 21.5901 17.8996 21.4091C17.7186 21.2278 17.628 21.0082 17.628 20.7503C17.628 20.4924 17.7186 20.2728 17.8996 20.0916L22.0534 15.9378L5.31305 15.9378C5.04701 15.9378 4.8243 15.848 4.64492 15.6684C4.46534 15.4891 4.37555 15.2663 4.37555 15.0003C4.37555 14.7343 4.46534 14.5116 4.64492 14.3322C4.8243 14.1526 5.04701 14.0628 5.31305 14.0628L22.0534 14.0628Z" fill="#1C1B1F" fill-opacity="0.6"/>
</g>
</svg>
