<svg width="20" height="20" viewBox="0 0 20 20" fill="none" xmlns="http://www.w3.org/2000/svg">
<g id="settings">
<mask id="mask0_226_664" style="mask-type:alpha" maskUnits="userSpaceOnUse" x="0" y="0" width="20" height="20">
<rect id="Bounding box" x="0.5" y="0.499023" width="19" height="19" fill="#D9D9D9"/>
</mask>
<g mask="url(#mask0_226_664)">
<path id="settings_2" d="M9.12187 17.5199C8.85191 17.5199 8.61876 17.4303 8.42243 17.2512C8.22596 17.0721 8.10642 16.8516 8.0638 16.5897L7.87044 15.1083C7.65841 15.0373 7.44096 14.9379 7.21811 14.8101C6.99538 14.6821 6.79621 14.5451 6.6206 14.399L5.24884 14.9821C5.00012 15.0917 4.75022 15.1023 4.49913 15.0139C4.24791 14.9256 4.05276 14.7653 3.91369 14.533L3.02148 12.9861C2.88241 12.7537 2.84237 12.5078 2.90135 12.2484C2.96019 11.9892 3.09517 11.7753 3.30628 11.6068L4.4922 10.7162C4.47399 10.5985 4.46106 10.4802 4.45341 10.3615C4.44576 10.2427 4.44193 10.1245 4.44193 10.0066C4.44193 9.89408 4.44576 9.77968 4.45341 9.66344C4.46106 9.5472 4.47399 9.42007 4.4922 9.28205L3.30628 8.39143C3.09517 8.22294 2.96145 8.00773 2.90511 7.74582C2.84877 7.48405 2.89013 7.23691 3.0292 7.00443L3.91369 5.48047C4.05276 5.25313 4.24791 5.09407 4.49913 5.00329C4.75022 4.91238 5.00012 4.92175 5.24884 5.0314L6.61288 5.60694C6.8038 5.45573 7.00759 5.31745 7.22424 5.1921C7.44089 5.06676 7.65379 4.96602 7.86292 4.88989L8.0638 3.40848C8.10642 3.14657 8.22596 2.92609 8.42243 2.74704C8.61876 2.56786 8.85191 2.47827 9.12187 2.47827H10.8758C11.1458 2.47827 11.3789 2.56786 11.5752 2.74704C11.7717 2.92609 11.8912 3.14657 11.9339 3.40848L12.1272 4.89741C12.3647 4.9837 12.5796 5.08444 12.7718 5.19963C12.9642 5.31481 13.1584 5.45058 13.3543 5.60694L14.7566 5.0314C15.0051 4.92175 15.255 4.91238 15.5063 5.00329C15.7575 5.09407 15.9526 5.25313 16.0915 5.48047L16.9762 7.01215C17.1153 7.2445 17.1553 7.49038 17.0963 7.74978C17.0375 8.00905 16.9025 8.22294 16.6914 8.39143L15.475 9.30481C15.5034 9.43267 15.5189 9.55221 15.5215 9.66344C15.524 9.77454 15.5253 9.88642 15.5253 9.9991C15.5253 10.1066 15.5227 10.216 15.5175 10.3273C15.5125 10.4383 15.4943 10.5655 15.4629 10.7086L16.6564 11.6068C16.8675 11.7753 17.0038 11.9892 17.0653 12.2484C17.1266 12.5078 17.0877 12.7537 16.9487 12.9861L16.0519 14.5253C15.913 14.7577 15.7166 14.9181 15.4629 15.0064C15.2092 15.0947 14.958 15.084 14.7093 14.9743L13.3543 14.3913C13.1584 14.5476 12.9584 14.6859 12.7544 14.8061C12.5504 14.9264 12.3414 15.0247 12.1272 15.1008L11.9339 16.5897C11.8912 16.8516 11.7717 17.0721 11.5752 17.2512C11.3789 17.4303 11.1458 17.5199 10.8758 17.5199H9.12187ZM9.20717 16.3324H10.7632L11.0478 14.2118C11.4518 14.1062 11.821 13.9563 12.1553 13.7619C12.4898 13.5674 12.8124 13.3174 13.1229 13.012L15.0898 13.8387L15.8694 12.4929L14.1521 11.1989C14.2181 10.9938 14.2629 10.7928 14.2867 10.5958C14.3106 10.399 14.3225 10.2001 14.3225 9.9991C14.3225 9.79301 14.3106 9.5941 14.2867 9.40239C14.2629 9.21054 14.2181 9.0146 14.1521 8.81457L15.8845 7.50535L15.1051 6.15952L13.1152 6.99829C12.8503 6.71514 12.5329 6.46497 12.1631 6.24779C11.7931 6.03061 11.4188 5.87683 11.0403 5.78645L10.7905 3.66577H9.21944L8.9574 5.77893C8.55352 5.87432 8.18058 6.02045 7.83858 6.21731C7.49644 6.41431 7.17008 6.66804 6.85948 6.9785L4.89259 6.15952L4.11319 7.50535L5.82279 8.77954C5.75682 8.96743 5.71064 9.16284 5.68425 9.36577C5.65786 9.5687 5.64467 9.78232 5.64467 10.0066C5.64467 10.2127 5.65786 10.4147 5.68425 10.6126C5.71064 10.8106 5.75431 11.006 5.81527 11.1989L4.11319 12.4929L4.89259 13.8387L6.85196 13.0074C7.1524 13.3159 7.47362 13.5687 7.81562 13.7657C8.15775 13.9625 8.53584 14.1137 8.94988 14.2193L9.20717 16.3324ZM10.0079 12.3741C10.6666 12.3741 11.2271 12.1429 11.6894 11.6806C12.1518 11.2183 12.3829 10.6578 12.3829 9.9991C12.3829 9.34044 12.1518 8.77994 11.6894 8.3176C11.2271 7.85527 10.6666 7.6241 10.0079 7.6241C9.34109 7.6241 8.77855 7.85527 8.3203 8.3176C7.86206 8.77994 7.63294 9.34044 7.63294 9.9991C7.63294 10.6578 7.86206 11.2183 8.3203 11.6806C8.77855 12.1429 9.34109 12.3741 10.0079 12.3741Z" fill="white"/>
</g>
</g>
</svg>
