<svg width="24" height="25" viewBox="0 0 24 25" fill="none" xmlns="http://www.w3.org/2000/svg">
<mask id="mask0_60_1070" style="mask-type:alpha" maskUnits="userSpaceOnUse" x="0" y="0" width="24" height="25">
<rect y="0.301483" width="24" height="24" fill="#D9D9D9"/>
</mask>
<g mask="url(#mask0_60_1070)">
<path d="M14.577 22.7245C14.1923 22.7245 13.8654 22.5899 13.5962 22.3207C13.3269 22.0514 13.1922 21.7245 13.1922 21.34V14.8785C13.1922 14.4938 13.3269 14.1669 13.5962 13.8977C13.8654 13.6284 14.1923 13.4937 14.577 13.4937H21.0385C21.423 13.4937 21.7499 13.6284 22.0192 13.8977C22.2884 14.1669 22.423 14.4938 22.423 14.8785V21.34C22.423 21.7245 22.2884 22.0514 22.0192 22.3207C21.7499 22.5899 21.423 22.7245 21.0385 22.7245H14.577ZM11 17.7072V21.8015H10.7385C10.3975 21.8015 10.1286 21.6883 9.93174 21.462C9.73491 21.2358 9.60958 20.9573 9.55574 20.6265L9.31149 18.7552C9.04366 18.6656 8.76899 18.54 8.48749 18.3785C8.20616 18.2168 7.95458 18.0437 7.73274 17.8592L5.99999 18.5957C5.68583 18.7342 5.37016 18.7477 5.05299 18.636C4.73566 18.5245 4.48916 18.322 4.31349 18.0285L3.18649 16.0745C3.01083 15.781 2.96024 15.4704 3.03474 15.1427C3.10908 14.8152 3.27958 14.5451 3.54624 14.3322L5.04424 13.2072C5.02124 13.0586 5.00491 12.9092 4.99524 12.7592C4.98558 12.6092 4.98074 12.4598 4.98074 12.311C4.98074 12.1688 4.98558 12.0243 4.99524 11.8775C5.00491 11.7307 5.02124 11.5701 5.04424 11.3957L3.54624 10.2707C3.27958 10.0579 3.11066 9.78607 3.03949 9.45523C2.96833 9.12457 3.02058 8.8124 3.19624 8.51873L4.31349 6.59373C4.48916 6.30657 4.73566 6.10565 5.05299 5.99098C5.37016 5.87615 5.68583 5.88798 5.99999 6.02648L7.72299 6.75348C7.96416 6.56248 8.22158 6.38782 8.49524 6.22948C8.76891 6.07115 9.03783 5.9439 9.30199 5.84773L9.55574 3.97648C9.60958 3.64565 9.76058 3.36715 10.0087 3.14098C10.2567 2.91465 10.5512 2.80148 10.8922 2.80148H13.1077C13.4487 2.80148 13.7432 2.91465 13.9912 3.14098C14.2394 3.36715 14.3904 3.64565 14.4442 3.97648L14.6885 5.85723C14.9885 5.96623 15.2599 6.09348 15.5027 6.23898C15.7457 6.38448 15.991 6.55598 16.2385 6.75348L18.0097 6.02648C18.3237 5.88798 18.6394 5.87615 18.9567 5.99098C19.2741 6.10565 19.5205 6.30657 19.696 6.59373L20.8135 8.52848C20.9892 8.82198 21.0397 9.13507 20.9652 9.46773C20.8909 9.8004 20.7204 10.0681 20.4537 10.2707L19.546 10.9515C19.3705 11.0797 19.1872 11.1351 18.996 11.1177C18.805 11.1004 18.6371 11.0091 18.4922 10.8437C18.3474 10.6784 18.2852 10.4945 18.3057 10.292C18.3262 10.0893 18.4192 9.91873 18.5845 9.78023L19.4345 9.15148L18.45 7.45148L15.9365 8.51098C15.6018 8.15332 15.2009 7.83732 14.7337 7.56298C14.2664 7.28865 13.7937 7.0944 13.3155 6.98023L13 4.30148H11.0155L10.6845 6.97073C10.1743 7.09123 9.70325 7.27582 9.27125 7.52448C8.83908 7.77332 8.42683 8.09382 8.03449 8.48598L5.54999 7.45148L4.56549 9.15148L6.72499 10.761C6.64166 10.9983 6.58333 11.2451 6.54999 11.5015C6.51666 11.7578 6.49999 12.0277 6.49999 12.311C6.49999 12.5713 6.51666 12.8265 6.54999 13.0765C6.58333 13.3265 6.63849 13.5733 6.71549 13.817L4.56549 15.4515L5.54999 17.1515L8.02499 16.1015C8.42499 16.5118 8.87916 16.8512 9.3875 17.1197C9.89583 17.3884 10.4333 17.5842 11 17.7072ZM12.0115 9.30148C11.1795 9.30148 10.4715 9.5909 9.88749 10.1697C9.30349 10.7486 9.01149 11.4591 9.01149 12.3015C9.01149 12.6323 9.06316 12.9516 9.16649 13.2592C9.26966 13.5669 9.42441 13.8547 9.63074 14.1227C9.77558 14.3086 9.95541 14.422 10.1702 14.463C10.3849 14.504 10.5801 14.4521 10.7557 14.3072C10.9314 14.1726 11.0305 14.003 11.053 13.7985C11.0753 13.5942 11.0141 13.4176 10.8692 13.2687C10.7501 13.1354 10.6607 12.9883 10.601 12.8275C10.5413 12.6665 10.5115 12.4911 10.5115 12.3015C10.5115 11.8848 10.6573 11.5306 10.949 11.239C11.2407 10.9473 11.5948 10.8015 12.0115 10.8015C12.191 10.8015 12.3663 10.8355 12.5375 10.9035C12.7087 10.9713 12.8609 11.0649 12.9942 11.1842C13.1429 11.3086 13.3118 11.3579 13.501 11.3322C13.69 11.3066 13.8518 11.2059 13.9865 11.0302C14.1212 10.8547 14.1705 10.6621 14.1345 10.4525C14.0987 10.2428 13.9929 10.0656 13.8172 9.92073C13.5967 9.72073 13.3294 9.56757 13.0152 9.46123C12.7012 9.35473 12.3667 9.30148 12.0115 9.30148ZM17.8077 19.0322C17.3911 19.0322 16.9875 19.0912 16.597 19.2092C16.2067 19.3271 15.8429 19.5059 15.5057 19.7457C15.3019 19.8854 15.1474 20.0302 15.0422 20.1802C14.9371 20.3302 14.8845 20.4854 14.8845 20.6457C14.8845 20.7496 14.923 20.8399 15 20.9167C15.0768 20.9937 15.1672 21.0322 15.2712 21.0322H20.4442C20.5211 21.0322 20.5881 20.9954 20.6452 20.9217C20.7022 20.8479 20.7307 20.7559 20.7307 20.6457C20.7307 20.4854 20.6782 20.3302 20.573 20.1802C20.4678 20.0302 20.3133 19.8854 20.1095 19.7457C19.7723 19.5059 19.4086 19.3271 19.0182 19.2092C18.6279 19.0912 18.2244 19.0322 17.8077 19.0322ZM17.8077 18.1092C18.1922 18.1092 18.5192 17.9746 18.7885 17.7052C19.0577 17.4361 19.1922 17.1092 19.1922 16.7245C19.1922 16.34 19.0577 16.0131 18.7885 15.7437C18.5192 15.4746 18.1922 15.34 17.8077 15.34C17.4231 15.34 17.0962 15.4746 16.827 15.7437C16.5577 16.0131 16.423 16.34 16.423 16.7245C16.423 17.1092 16.5577 17.4361 16.827 17.7052C17.0962 17.9746 17.4231 18.1092 17.8077 18.1092Z" fill="#1C1B1F" fill-opacity="0.6"/>
</g>
</svg>
