<svg width="20" height="20" viewBox="0 0 20 20" fill="none" xmlns="http://www.w3.org/2000/svg">
<g id="open_in_new_down">
<mask id="mask0_226_682" style="mask-type:alpha" maskUnits="userSpaceOnUse" x="0" y="0" width="20" height="20">
<rect id="Bounding box" x="0.5" y="0.499023" width="19" height="19" fill="#D9D9D9"/>
</mask>
<g mask="url(#mask0_226_682)">
<path id="open_in_new_down_2" d="M4.70067 16.7281C4.30074 16.7281 3.96224 16.5896 3.68516 16.3125C3.40807 16.0354 3.26953 15.6969 3.26953 15.297V4.70091C3.26953 4.30099 3.40807 3.96248 3.68516 3.6854C3.96224 3.40832 4.30074 3.26978 4.70067 3.26978H15.2967C15.6967 3.26978 16.0352 3.40832 16.3122 3.6854C16.5893 3.96248 16.7279 4.30099 16.7279 4.70091V9.25299C16.7279 9.42149 16.671 9.56254 16.5573 9.67614C16.4437 9.78988 16.3026 9.84674 16.1341 9.84674C15.9656 9.84674 15.8246 9.78988 15.711 9.67614C15.5972 9.56254 15.5404 9.42149 15.5404 9.25299V4.70091C15.5404 4.63995 15.515 4.58414 15.4642 4.53347C15.4135 4.48267 15.3577 4.45728 15.2967 4.45728H4.70067C4.63971 4.45728 4.5839 4.48267 4.53323 4.53347C4.48243 4.58414 4.45703 4.63995 4.45703 4.70091V15.297C4.45703 15.3579 4.48243 15.4137 4.53323 15.4644C4.5839 15.5152 4.63971 15.5406 4.70067 15.5406H9.25275C9.42124 15.5406 9.56229 15.5975 9.6759 15.7112C9.78963 15.8248 9.8465 15.9659 9.8465 16.1344C9.8465 16.3029 9.78963 16.4439 9.6759 16.5575C9.56229 16.6712 9.42124 16.7281 9.25275 16.7281H4.70067ZM14.7137 15.5406L7.79113 8.6256C7.68149 8.51608 7.62469 8.37913 7.62073 8.21472C7.61664 8.05032 7.67344 7.90921 7.79113 7.79138C7.90078 7.68173 8.03985 7.62691 8.20834 7.62691C8.37684 7.62691 8.51584 7.68173 8.62535 7.79138L15.5404 14.6941V12.176C15.5404 12.0075 15.5972 11.8665 15.711 11.7529C15.8246 11.6391 15.9656 11.5823 16.1341 11.5823C16.3026 11.5823 16.4437 11.6391 16.5573 11.7529C16.671 11.8665 16.7279 12.0075 16.7279 12.176V16.0124C16.7279 16.2166 16.6596 16.3868 16.523 16.5233C16.3866 16.6598 16.2163 16.7281 16.0122 16.7281H12.1758C12.0073 16.7281 11.8662 16.6712 11.7526 16.5575C11.6389 16.4439 11.582 16.3029 11.582 16.1344C11.582 15.9659 11.6389 15.8248 11.7526 15.7112C11.8662 15.5975 12.0073 15.5406 12.1758 15.5406H14.7137Z" fill="white"/>
</g>
</g>
</svg>
