<svg width="15" height="15" viewBox="0 0 15 15" fill="none" xmlns="http://www.w3.org/2000/svg">
<path d="M3.26694 11.2486C3.86903 10.8019 4.52494 10.4491 5.23469 10.1902C5.94432 9.93139 6.69964 9.802 7.50065 9.802C8.30166 9.802 9.05698 9.93139 9.76661 10.1902C10.4764 10.4491 11.1323 10.8019 11.7344 11.2486C12.1747 10.7646 12.5236 10.2043 12.7811 9.56772C13.0386 8.93116 13.1673 8.2419 13.1673 7.49992C13.1673 5.92978 12.6154 4.5928 11.5116 3.48898C10.4078 2.38516 9.07079 1.83325 7.50065 1.83325C5.93051 1.83325 4.59353 2.38516 3.48971 3.48898C2.38589 4.5928 1.83398 5.92978 1.83398 7.49992C1.83398 8.2419 1.96272 8.93116 2.2202 9.56772C2.47768 10.2043 2.8266 10.7646 3.26694 11.2486ZM7.50083 8.03117C6.85412 8.03117 6.30876 7.80922 5.86475 7.36534C5.42063 6.92133 5.19857 6.37597 5.19857 5.72926C5.19857 5.08255 5.42051 4.5372 5.8644 4.09319C6.30841 3.64906 6.85377 3.427 7.50047 3.427C8.14718 3.427 8.69254 3.64895 9.13655 4.09283C9.58067 4.53684 9.80273 5.0822 9.80273 5.72891C9.80273 6.37562 9.58079 6.92097 9.1369 7.36498C8.69289 7.80911 8.14754 8.03117 7.50083 8.03117ZM7.50065 14.2291C6.56624 14.2291 5.68968 14.0534 4.87096 13.7019C4.05225 13.3505 3.34008 12.8719 2.73445 12.2661C2.12871 11.6605 1.65011 10.9483 1.29866 10.1296C0.94721 9.31089 0.771484 8.43433 0.771484 7.49992C0.771484 6.56551 0.94721 5.68895 1.29866 4.87023C1.65011 4.05152 2.12871 3.33935 2.73445 2.73372C3.34008 2.12798 4.05225 1.64938 4.87096 1.29793C5.68968 0.946478 6.56624 0.770752 7.50065 0.770752C8.43506 0.770752 9.31162 0.946478 10.1303 1.29793C10.9491 1.64938 11.6612 2.12798 12.2668 2.73372C12.8726 3.33935 13.3512 4.05152 13.7026 4.87023C14.0541 5.68895 14.2298 6.56551 14.2298 7.49992C14.2298 8.43433 14.0541 9.31089 13.7026 10.1296C13.3512 10.9483 12.8726 11.6605 12.2668 12.2661C11.6612 12.8719 10.9491 13.3505 10.1303 13.7019C9.31162 14.0534 8.43506 14.2291 7.50065 14.2291ZM7.50065 13.1666C8.13992 13.1666 8.75629 13.0638 9.34975 12.8581C9.94322 12.6523 10.4702 12.3647 10.9306 11.9952C10.4702 11.6391 9.95007 11.3617 9.3703 11.1629C8.79041 10.964 8.16719 10.8645 7.50065 10.8645C6.83411 10.8645 6.20977 10.9628 5.62764 11.1593C5.04551 11.356 4.52654 11.6346 4.07072 11.9952C4.53114 12.3647 5.05808 12.6523 5.65155 12.8581C6.24501 13.0638 6.86138 13.1666 7.50065 13.1666ZM7.50065 6.96867C7.85305 6.96867 8.14771 6.85014 8.38465 6.61309C8.62171 6.37615 8.74023 6.08148 8.74023 5.72908C8.74023 5.37669 8.62171 5.08202 8.38465 4.84509C8.14771 4.60803 7.85305 4.4895 7.50065 4.4895C7.14826 4.4895 6.85359 4.60803 6.61665 4.84509C6.3796 5.08202 6.26107 5.37669 6.26107 5.72908C6.26107 6.08148 6.3796 6.37615 6.61665 6.61309C6.85359 6.85014 7.14826 6.96867 7.50065 6.96867Z" fill="#002B5B"/>
</svg>
