<svg width="24" height="25" viewBox="0 0 24 25" fill="none" xmlns="http://www.w3.org/2000/svg">
<mask id="mask0_60_1064" style="mask-type:alpha" maskUnits="userSpaceOnUse" x="0" y="0" width="24" height="25">
<rect y="0.301483" width="24" height="24" fill="#D9D9D9"/>
</mask>
<g mask="url(#mask0_60_1064)">
<path d="M13.9988 11.5322C14.7624 11.5322 15.4118 11.265 15.947 10.7305C16.4823 10.196 16.75 9.54698 16.75 8.78348C16.75 8.01982 16.4827 7.3704 15.9482 6.83523C15.4137 6.2999 14.7648 6.03223 14.0013 6.03223C13.2376 6.03223 12.5882 6.29948 12.053 6.83398C11.5177 7.36848 11.25 8.01757 11.25 8.78123C11.25 9.54473 11.5173 10.1941 12.0518 10.7295C12.5863 11.2646 13.2353 11.5322 13.9988 11.5322ZM8.2885 16.1477C9.01933 15.3221 9.88083 14.6862 10.873 14.24C11.8653 13.7938 12.9077 13.5707 14 13.5707C15.0923 13.5707 16.1347 13.7938 17.127 14.24C18.1192 14.6862 18.9807 15.3221 19.7115 16.1477C19.7948 16.1477 19.8637 16.1172 19.9182 16.0562C19.9727 15.9954 20 15.9233 20 15.84V4.60923C20 4.5194 19.9712 4.44565 19.9135 4.38798C19.8558 4.33032 19.7821 4.30148 19.6923 4.30148H8.30775C8.21792 4.30148 8.14417 4.33032 8.0865 4.38798C8.02883 4.44565 8 4.5194 8 4.60923V15.84C8 15.9233 8.02725 15.9954 8.08175 16.0562C8.13625 16.1172 8.20517 16.1477 8.2885 16.1477ZM8.30775 17.8015C7.81058 17.8015 7.385 17.6245 7.031 17.2705C6.677 16.9165 6.5 16.4909 6.5 15.9937V4.60923C6.5 4.11207 6.677 3.68648 7.031 3.33248C7.385 2.97848 7.81058 2.80148 8.30775 2.80148H19.6923C20.1894 2.80148 20.615 2.97848 20.969 3.33248C21.323 3.68648 21.5 4.11207 21.5 4.60923V15.9937C21.5 16.4909 21.323 16.9165 20.969 17.2705C20.615 17.6245 20.1894 17.8015 19.6923 17.8015H8.30775ZM4.30775 21.8015C3.81058 21.8015 3.385 21.6245 3.031 21.2705C2.677 20.9165 2.5 20.4909 2.5 19.9937V7.55148C2.5 7.33898 2.57192 7.1609 2.71575 7.01723C2.85958 6.8734 3.03775 6.80148 3.25025 6.80148C3.46292 6.80148 3.641 6.8734 3.7845 7.01723C3.92817 7.1609 4 7.33898 4 7.55148V19.9937C4 20.0836 4.02883 20.1573 4.0865 20.215C4.14417 20.2726 4.21792 20.3015 4.30775 20.3015H16.75C16.9625 20.3015 17.1406 20.3734 17.2843 20.5172C17.4281 20.6611 17.5 20.8392 17.5 21.0517C17.5 21.2644 17.4281 21.4425 17.2843 21.586C17.1406 21.7296 16.9625 21.8015 16.75 21.8015H4.30775ZM14 10.0322C13.6525 10.0322 13.3573 9.91082 13.1145 9.66798C12.8715 9.42498 12.75 9.12973 12.75 8.78223C12.75 8.4349 12.8715 8.13973 13.1145 7.89673C13.3573 7.65373 13.6525 7.53223 14 7.53223C14.3475 7.53223 14.6427 7.65373 14.8855 7.89673C15.1285 8.13973 15.25 8.4349 15.25 8.78223C15.25 9.12973 15.1285 9.42498 14.8855 9.66798C14.6427 9.91082 14.3475 10.0322 14 10.0322ZM10.3345 16.3015H17.6655C17.1437 15.8911 16.5689 15.5835 15.9413 15.3785C15.3138 15.1733 14.6667 15.0707 14 15.0707C13.3333 15.0707 12.6863 15.1733 12.0588 15.3785C11.4311 15.5835 10.8563 15.8911 10.3345 16.3015Z" fill="#1C1B1F" fill-opacity="0.6"/>
</g>
</svg>
