<svg width="18" height="18" viewBox="0 0 18 18" fill="none" xmlns="http://www.w3.org/2000/svg">
<path d="M8.12469 9.88781L6.77219 8.54802C6.65677 8.4326 6.51385 8.37357 6.34344 8.37093C6.17302 8.36829 6.02316 8.43156 5.89385 8.56073C5.77316 8.68156 5.71281 8.82795 5.71281 8.99989C5.71281 9.17184 5.77316 9.31822 5.89385 9.43906L7.5974 11.1426C7.74809 11.2932 7.92385 11.3684 8.12469 11.3684C8.32552 11.3684 8.50129 11.2932 8.65198 11.1426L12.1055 7.68906C12.2294 7.56503 12.2905 7.41996 12.2889 7.25385C12.2873 7.08774 12.2262 6.94003 12.1055 6.81072C11.9762 6.68156 11.8277 6.61482 11.6599 6.61052C11.4923 6.60621 11.3438 6.66871 11.2145 6.79802L8.12469 9.88781ZM6.00781 16.6522L4.85552 14.7147L2.67594 14.2466C2.48899 14.2103 2.33969 14.112 2.22802 13.9518C2.11635 13.7915 2.07177 13.6179 2.09427 13.4309L2.3074 11.1891L0.825104 9.49343C0.69691 9.35677 0.632812 9.19225 0.632812 8.99989C0.632812 8.80753 0.69691 8.64302 0.825104 8.50635L2.3074 6.81072L2.09427 4.56885C2.07177 4.38191 2.11635 4.20829 2.22802 4.04802C2.33969 3.88774 2.48899 3.78947 2.67594 3.75322L4.85552 3.2851L6.00781 1.3476C6.10823 1.18316 6.24497 1.071 6.41802 1.01114C6.59108 0.95128 6.76684 0.960377 6.94531 1.03843L8.99969 1.90697L11.0541 1.03843C11.2325 0.960377 11.4083 0.95128 11.5814 1.01114C11.7544 1.071 11.8911 1.18316 11.9916 1.3476L13.1439 3.2851L15.3234 3.75322C15.5104 3.78947 15.6597 3.88774 15.7714 4.04802C15.883 4.20829 15.9276 4.38191 15.9051 4.56885L15.692 6.81072L17.1743 8.50635C17.3025 8.64302 17.3666 8.80753 17.3666 8.99989C17.3666 9.19225 17.3025 9.35677 17.1743 9.49343L15.692 11.1891L15.9051 13.4309C15.9276 13.6179 15.883 13.7915 15.7714 13.9518C15.6597 14.112 15.5104 14.2103 15.3234 14.2466L13.1439 14.7147L11.9916 16.6522C11.8911 16.8166 11.7544 16.9288 11.5814 16.9886C11.4083 17.0485 11.2325 17.0394 11.0541 16.9613L8.99969 16.0928L6.94531 16.9613C6.76684 17.0394 6.59108 17.0485 6.41802 16.9886C6.24497 16.9288 6.10823 16.8166 6.00781 16.6522Z" fill="#002B5B"/>
</svg>
