<svg width="24" height="24" viewBox="0 0 24 24" fill="none" xmlns="http://www.w3.org/2000/svg">
<g id="videocam_off">
<mask id="mask0_226_1253" style="mask-type:alpha" maskUnits="userSpaceOnUse" x="0" y="-1" width="24" height="25">
<rect id="Bounding box" y="-0.00195312" width="24" height="24" fill="#D9D9D9"/>
</mask>
<g mask="url(#mask0_226_1253)">
<path id="videocam_off_2" d="M17.768 10.8829L20.517 8.13364C20.6625 7.98814 20.8273 7.95239 21.0113 8.02639C21.1953 8.10039 21.2873 8.24098 21.2873 8.44814V15.5481C21.2873 15.7553 21.1953 15.8959 21.0113 15.9699C20.8273 16.0439 20.6625 16.0081 20.517 15.8626L17.768 13.1134V13.7481C17.768 13.9606 17.6961 14.1388 17.5523 14.2826C17.4084 14.4263 17.2303 14.4981 17.0178 14.4981C16.8051 14.4981 16.627 14.4263 16.4835 14.2826C16.3398 14.1388 16.268 13.9606 16.268 13.7481V6.30589C16.268 6.21606 16.2392 6.14231 16.1815 6.08465C16.1238 6.02698 16.0501 5.99814 15.9603 5.99814H8.82576C8.57576 5.99814 8.38826 5.92023 8.26326 5.7644C8.13826 5.6084 8.07576 5.43689 8.07576 5.24989C8.07576 5.06289 8.13826 4.89081 8.26326 4.73364C8.38826 4.57664 8.57576 4.49814 8.82576 4.49814H15.9603C16.4654 4.49814 16.893 4.67314 17.243 5.02314C17.593 5.37314 17.768 5.80073 17.768 6.30589V10.8829ZM19.4448 21.6289L2.06026 4.24439C1.92192 4.10589 1.85109 3.93181 1.84776 3.72215C1.84459 3.51265 1.91542 3.33539 2.06026 3.19039C2.20526 3.04556 2.38092 2.97314 2.58726 2.97314C2.79359 2.97314 2.96926 3.04556 3.11426 3.19039L20.4988 20.5749C20.6373 20.7134 20.7081 20.8875 20.7113 21.0971C20.7144 21.3068 20.6436 21.4841 20.4988 21.6289C20.3539 21.7737 20.1783 21.8461 19.9718 21.8461C19.7654 21.8461 19.5898 21.7737 19.4448 21.6289ZM4.44101 4.5174L5.92176 5.99814H4.57576C4.48592 5.99814 4.41217 6.02698 4.35451 6.08465C4.29684 6.14231 4.26801 6.21606 4.26801 6.30589V17.6904C4.26801 17.7802 4.29684 17.854 4.35451 17.9116C4.41217 17.9693 4.48592 17.9981 4.57576 17.9981H15.9603C16.0501 17.9981 16.1238 17.9693 16.1815 17.9116C16.2392 17.854 16.268 17.7802 16.268 17.6904V16.3444L17.7488 17.8251C17.7168 18.2918 17.5303 18.6873 17.1895 19.0116C16.8487 19.336 16.4389 19.4981 15.9603 19.4981H4.57576C4.07059 19.4981 3.64301 19.3231 3.29301 18.9731C2.94301 18.6231 2.76801 18.1956 2.76801 17.6904V6.30589C2.76801 5.82723 2.93017 5.41748 3.25451 5.07664C3.57884 4.73581 3.97434 4.54939 4.44101 4.5174Z" fill="white"/>
</g>
</g>
</svg>
