<svg width="24" height="25" viewBox="0 0 24 25" fill="none" xmlns="http://www.w3.org/2000/svg">
<mask id="mask0_60_1052" style="mask-type:alpha" maskUnits="userSpaceOnUse" x="0" y="0" width="24" height="25">
<rect y="0.301483" width="24" height="24" fill="#D9D9D9"/>
</mask>
<g mask="url(#mask0_60_1052)">
<path d="M1.3655 18.09C1.12033 18.09 0.91475 18.0071 0.74875 17.8412C0.582917 17.6752 0.5 17.4697 0.5 17.2245V16.8707C0.5 16.2054 0.847417 15.6589 1.54225 15.2312C2.23725 14.8037 3.14308 14.59 4.25975 14.59C4.44425 14.59 4.63008 14.5957 4.81725 14.6072C5.00442 14.6187 5.19292 14.6412 5.38275 14.6745C5.18792 14.9862 5.04333 15.3096 4.949 15.6447C4.85483 15.9801 4.80775 16.324 4.80775 16.6765V18.09H1.3655ZM7.40775 18.09C7.14742 18.09 6.93108 18.0033 6.75875 17.83C6.58625 17.6568 6.5 17.4422 6.5 17.186V16.715C6.5 16.2468 6.63142 15.8189 6.89425 15.4312C7.15708 15.0434 7.53592 14.7053 8.03075 14.417C8.52558 14.1285 9.11025 13.9122 9.78475 13.768C10.4591 13.6237 11.1963 13.5515 11.9963 13.5515C12.8116 13.5515 13.5564 13.6237 14.2308 13.768C14.9051 13.9122 15.4897 14.1285 15.9845 14.417C16.4795 14.7053 16.8558 15.0434 17.1135 15.4312C17.3712 15.8189 17.5 16.2468 17.5 16.715V17.186C17.5 17.4422 17.4133 17.6568 17.24 17.83C17.0668 18.0033 16.8522 18.09 16.596 18.09H7.40775ZM19.1923 18.09V16.6777C19.1923 16.3012 19.1478 15.947 19.0588 15.615C18.9696 15.283 18.8359 14.9695 18.6578 14.6745C18.8539 14.6412 19.0414 14.6187 19.2203 14.6072C19.3991 14.5957 19.5757 14.59 19.75 14.59C20.8667 14.59 21.7708 14.8012 22.4625 15.2237C23.1542 15.6461 23.5 16.1951 23.5 16.8707V17.2245C23.5 17.4697 23.4171 17.6752 23.2512 17.8412C23.0852 18.0071 22.8797 18.09 22.6345 18.09H19.1923ZM8.077 16.59H15.9385V16.4842C15.836 16.0804 15.4103 15.7407 14.6615 15.465C13.9128 15.1893 13.0257 15.0515 12 15.0515C10.9743 15.0515 10.0872 15.1893 9.3385 15.465C8.58967 15.7407 8.16917 16.0804 8.077 16.4842V16.59ZM4.257 13.6187C3.78567 13.6187 3.383 13.4512 3.049 13.116C2.715 12.7808 2.548 12.3779 2.548 11.9072C2.548 11.4304 2.71567 11.0276 3.051 10.6987C3.38617 10.3699 3.78908 10.2055 4.25975 10.2055C4.73658 10.2055 5.141 10.3699 5.473 10.6987C5.80517 11.0276 5.97125 11.4314 5.97125 11.9102C5.97125 12.3749 5.80692 12.7758 5.47825 13.113C5.14975 13.4502 4.74267 13.6187 4.257 13.6187ZM19.75 13.6187C19.2833 13.6187 18.8814 13.4502 18.5443 13.113C18.2071 12.7758 18.0385 12.3749 18.0385 11.9102C18.0385 11.4314 18.2071 11.0276 18.5443 10.6987C18.8814 10.3699 19.2839 10.2055 19.7518 10.2055C20.2339 10.2055 20.6394 10.3699 20.9683 10.6987C21.2971 11.0276 21.4615 11.4304 21.4615 11.9072C21.4615 12.3779 21.2975 12.7808 20.9695 13.116C20.6415 13.4512 20.235 13.6187 19.75 13.6187ZM12.0035 12.8015C11.2832 12.8015 10.6698 12.5491 10.1635 12.0442C9.65717 11.5396 9.404 10.9267 9.404 10.2055C9.404 9.46982 9.65633 8.85324 10.161 8.35574C10.6658 7.85807 11.2788 7.60924 12 7.60924C12.7355 7.60924 13.3521 7.85774 13.8497 8.35474C14.3472 8.85157 14.596 9.46732 14.596 10.202C14.596 10.9222 14.3476 11.5355 13.8508 12.042C13.3538 12.5483 12.738 12.8015 12.0035 12.8015ZM12.0048 11.3015C12.3106 11.3015 12.5689 11.1945 12.7797 10.9805C12.9907 10.7663 13.0962 10.5063 13.0962 10.2005C13.0962 9.89482 12.9912 9.63649 12.781 9.42549C12.5708 9.21466 12.3105 9.10924 12 9.10924C11.6975 9.10924 11.4392 9.21432 11.225 9.42449C11.0108 9.63449 10.9038 9.89482 10.9038 10.2055C10.9038 10.508 11.0108 10.7663 11.225 10.9805C11.4392 11.1945 11.6991 11.3015 12.0048 11.3015Z" fill="#1C1B1F" fill-opacity="0.6"/>
</g>
</svg>
